# xmcd
#
# Track frame offsets:
#	150
#	20315
#	38725
#	75095
#	95180
#	114515
#	131490
#	151270
#	184090
#	206045
#	220685
#	246705
#
# Disc length: 3464 seconds
#
# Revision: 3
# Processed by: cddbd v1.5.2PL0 Copyright (c) Steve Scherf et al.
# Submitted via: EasyCDDAExtractor 11.9.9.666
#
DISCID=9c0d860c
DTITLE=JIMMY BUFFETT - FAR SIDE OF THE WORLD
DYEAR=2002
DGENRE=Blues
TTITLE0=BLUE GUITAR
TTITLE1=MADEMOISELLE (VOULEZ VOUS DANSER)
TTITLE2=AUTOUR DU ROCHER
TTITLE3=SAVANNAH FARE YOU WELL
TTITLE4=ALL THE WAYS I WANT YOU
TTITLE5=LAST MAN STANDING
TTITLE6=WHAT IF THE HOKEY POKEY IS ALL IT REALLY IS ABOUT
TTITLE7=ALTERED BOY
TTITLE8=USS ZYDECOLDSMOBILE
TTITLE9=SOMEDAY I WILL
TTITLE10=FAR SIDE OF THE WORLD
TTITLE11=TONIGHT I JUST NEED MY GUITAR
EXTD=
EXTT0=
EXTT1=
EXTT2=
EXTT3=
EXTT4=
EXTT5=
EXTT6=
EXTT7=
EXTT8=
EXTT9=
EXTT10=
EXTT11=
PLAYORDER=
